<svg width="50" height="36" viewBox="0 0 50 36" fill="none" xmlns="http://www.w3.org/2000/svg">
<g id="&#232;&#137;&#175;&#230;&#172;&#163;Logo" clip-path="url(#clip0_554_1014)">
<path id="Vector" d="M39.3962 26.2642L49.1321 0.45283H31.2453C28.0755 0.45283 21.7359 6.11321 21.7359 11.7736C21.7359 17.434 28.7547 20.3774 28.7547 24.2264C28.7547 27.3057 24.9826 31.0958 23.0943 32.6038H20.8302V8.83019C20.8302 8.22792 20.4725 6.91472 18.3396 6.62491V4.30189L19.2453 2.26415H20.8302V0.45283H14.4906V2.26415H16.0755L16.9811 4.30189V6.58868C15.0023 6.76981 14.4906 8.1283 14.4906 8.83019V32.6038H6.33962C1.99245 32.6038 3.16981 27.926 4.30189 25.5849L13.3585 0H10.1887L0.679245 26.4906C0.511698 26.9525 0 27.5321 0 30.7925C0 34.0528 2.86642 35.6242 4.30189 36H22.7094C26.3321 34.8679 31.6981 28.6732 31.6981 24.2264C31.6981 15.8491 25.1321 18.557 25.1321 11.7736C25.1321 6.34868 29.2075 4.08 31.2453 3.62264H44.8302L36.4528 25.8113C36.2264 26.3411 35.7736 28.166 35.7736 31.2453C35.7736 34.3245 38.4906 35.6966 39.8491 36H44.6038L45.9623 32.6038H40.7547C38.5811 32.6038 38.9434 28.3789 39.3962 26.2642ZM19.9245 10.6415H15.3962V8.60377C15.3962 8.22792 15.8491 7.4717 17.6604 7.4717C19.4717 7.4717 19.9245 8.22792 19.9245 8.60377V10.6415Z" fill="white"/>
</g>
<defs>
<clipPath id="clip0_554_1014">
<rect width="49.1321" height="36" fill="white"/>
</clipPath>
</defs>
</svg>
