<svg width="33" height="24" viewBox="0 0 33 24" fill="none" xmlns="http://www.w3.org/2000/svg">
<path d="M26.2642 17.5094L32.7547 0.301887H20.8302C18.717 0.301887 14.4906 4.07547 14.4906 7.84906C14.4906 11.6226 19.1698 13.5849 19.1698 16.1509C19.1698 18.2038 16.6551 20.7306 15.3962 21.7358H13.8868V5.88679C13.8868 5.48528 13.6483 4.60981 12.2264 4.4166V2.86792L12.8302 1.50943H13.8868V0.301887H9.66038V1.50943H10.717L11.3208 2.86792V4.39245C10.0015 4.51321 9.66038 5.41887 9.66038 5.88679V21.7358H4.22642C1.3283 21.7358 2.11321 18.6174 2.86792 17.0566L8.90566 0H6.79245L0.45283 17.6604C0.341132 17.9683 0 18.3547 0 20.5283C0 22.7019 1.91094 23.7494 2.86792 24H15.1396C17.5547 23.2453 21.1321 19.1155 21.1321 16.1509C21.1321 10.566 16.7547 12.3713 16.7547 7.84906C16.7547 4.23245 19.4717 2.72 20.8302 2.41509H29.8868L24.3019 17.2075C24.1509 17.5608 23.8491 18.7774 23.8491 20.8302C23.8491 22.883 25.6604 23.7977 26.566 24H29.7358L30.6415 21.7358H27.1698C25.7208 21.7358 25.9623 18.9192 26.2642 17.5094ZM13.283 7.09434H10.2642V5.73585C10.2642 5.48528 10.566 4.98113 11.7736 4.98113C12.9811 4.98113 13.283 5.48528 13.283 5.73585V7.09434Z" fill="white"/>
</svg>
